<svg xmlns="http://www.w3.org/2000/svg" viewBox="0 0 64 64">
  <defs>
    <linearGradient id="c" x1="10" y1="8" x2="56" y2="56" gradientUnits="userSpaceOnUse">
      <stop offset="0" stop-color="#67f6ff" />
      <stop offset="0.45" stop-color="#18c9f5" />
      <stop offset="1" stop-color="#1557f0" />
    </linearGradient>
    <linearGradient id="a" x1="22" y1="10" x2="44" y2="52" gradientUnits="userSpaceOnUse">
      <stop offset="0" stop-color="#efffff" />
      <stop offset="0.3" stop-color="#56efff" />
      <stop offset="0.68" stop-color="#159cf8" />
      <stop offset="1" stop-color="#183bea" />
    </linearGradient>
    <linearGradient id="diamond" x1="27" y1="38" x2="37" y2="52" gradientUnits="userSpaceOnUse">
      <stop offset="0" stop-color="#9cffff" />
      <stop offset="1" stop-color="#0a54ec" />
    </linearGradient>
  </defs>

  <path
    d="M50.5 12.3C44.8 6.5 36.5 3.8 28.6 5.1 15.3 7.3 6 18.6 6 32.1 6 47.1 17.7 58.2 32.3 58.2 44.4 58.2 54.8 51.5 59 41.5"
    fill="none"
    stroke="url(#c)"
    stroke-width="7"
    stroke-linecap="round"
  />

  <path
    d="M32 10 14.8 49.4h8.4L32 28.6l8.8 20.8h8.4L32 10Zm0 14.8-5.1 12.3h10.2L32 24.8Z"
    fill="url(#a)"
    fill-rule="evenodd"
  />
  <path d="M32 10 22.8 49.4H14.8L32 10Z" fill="#73f7ff" opacity="0.55" />
  <path d="M32 10 49.2 49.4h-8.4L32 28.6V10Z" fill="#1a67f2" opacity="0.5" />
  <path d="M32 37.8 38 44.1 32 51.7 26 44.1 32 37.8Z" fill="url(#diamond)" />
  <path d="M32 37.8v13.9M26 44.1h12" stroke="#dfffff" stroke-width="1" opacity="0.82" />
  <path d="M32 10 14.8 49.4M32 10l17.2 39.4" stroke="#dfffff" stroke-width="1" opacity="0.68" />
</svg>
